<svg height="512pt" viewBox="0 -25 512.003 512" width="512pt" xmlns="http://www.w3.org/2000/svg"><path d="m469.398438 0h-426.796876c-23.492187 0-42.601562 19.113281-42.601562 42.601562v293.632813c0 11.742187 4.773438 22.386719 12.484375 30.101563.003906 0 .003906.003906.003906.003906.246094.246094.5.476562.75.714844.246094.234374.484375.472656.734375.699218.003906.003906.011719.011719.019532.015625 7.566406 6.871094 17.605468 11.066407 28.605468 11.066407h144.832032l-9.320313 68.78125h-8.039063c-4.140624 0-7.5 3.355468-7.5 7.5 0 4.140624 3.359376 7.5 7.5 7.5h171.859376c4.144531 0 7.5-3.359376 7.5-7.5 0-4.144532-3.355469-7.5-7.5-7.5h-8.039063l-9.316406-68.78125h144.832031c11 0 21.039062-4.195313 28.605469-11.066407.007812-.003906.011719-.007812.019531-.015625.25-.226562.488281-.464844.734375-.699218.25-.238282.503906-.46875.746094-.714844.003906 0 .003906-.003906.007812-.003906 7.707031-7.714844 12.484375-18.359376 12.484375-30.101563v-293.632813c-.003906-23.488281-19.113281-42.601562-42.605468-42.601562zm-426.796876 15h426.796876c15.21875 0 27.601562 12.382812 27.601562 27.601562v236.578126h-12.953125v-233.671876c0-9.515624-7.742187-17.261718-17.261719-17.261718h-421.570312c-9.515625 0-17.261719 7.746094-17.261719 17.261718v233.671876h-12.953125v-236.578126c0-15.21875 12.382812-27.601562 27.601562-27.601562zm276.152344 432.617188h-125.507812l9.316406-68.78125h106.871094zm-2.765625-83.785157h-273.386719c-6.523437 0-12.515624-2.277343-17.246093-6.070312-.097657-.082031-.203125-.160157-.300781-.238281-.039063-.03125-.074219-.066407-.113282-.097657-6.070312-5.070312-9.941406-12.6875-9.941406-21.199219v-42.046874h403.734375c4.140625 0 7.5-3.355469 7.5-7.5 0-4.144532-3.359375-7.5-7.5-7.5h-231.878906v-180.566407c0-4.140625-3.359375-7.5-7.5-7.5s-7.5 3.359375-7.5 7.5v180.566407h-128.902344v-233.671876c0-1.246093 1.015625-2.261718 2.261719-2.261718h126.640625v24.253906c0 4.144531 3.359375 7.5 7.5 7.5 4.144531 0 7.5-3.355469 7.5-7.5v-24.253906h279.929687c1.246094 0 2.261719 1.015625 2.261719 2.261718v233.671876h-17.480469c-4.140625 0-7.5 3.359374-7.5 7.5 0 4.144531 3.359375 7.5 7.5 7.5h45.433594v42.050781c0 8.507812-3.871094 16.128906-9.941406 21.195312-.035156.03125-.074219.066407-.113282.097657-.097656.082031-.203124.15625-.300781.238281-4.730469 3.792969-10.722656 6.074219-17.246093 6.074219h-153.410157zm0 0"/><path d="m256 308.339844c-11.394531 0-20.664062 9.273437-20.664062 20.667968 0 11.394532 9.269531 20.664063 20.664062 20.664063s20.664062-9.269531 20.664062-20.664063c0-11.394531-9.269531-20.667968-20.664062-20.667968zm0 26.332031c-3.121094 0-5.664062-2.539063-5.664062-5.664063s2.542968-5.667968 5.664062-5.667968 5.664062 2.542968 5.664062 5.667968-2.542968 5.664063-5.664062 5.664063zm0 0"/><path d="m75.875 56.621094c-11.953125 0-21.679688 9.722656-21.679688 21.683594 0 11.953124 9.726563 21.679687 21.679688 21.679687s21.675781-9.726563 21.675781-21.6875c0-11.953125-9.722656-21.675781-21.675781-21.675781zm0 28.363281c-3.683594 0-6.679688-2.996094-6.679688-6.6875 0-3.679687 2.996094-6.675781 6.679688-6.675781 3.679688 0 6.675781 2.996094 6.675781 6.683594 0 3.683593-2.996093 6.679687-6.675781 6.679687zm0 0"/><path d="m149.941406 70.800781h-35.332031c-4.140625 0-7.5 3.355469-7.5 7.5s3.359375 7.5 7.5 7.5h35.332031c4.140625 0 7.5-3.355469 7.5-7.5s-3.359375-7.5-7.5-7.5zm0 0"/><path d="m211.871094 76.757812h232.257812c4.140625 0 7.5-3.355468 7.5-7.5 0-4.140624-3.359375-7.5-7.5-7.5h-232.257812c-4.140625 0-7.5 3.359376-7.5 7.5 0 4.144532 3.359375 7.5 7.5 7.5zm0 0"/><path d="m211.871094 106.113281h86.5625c4.140625 0 7.5-3.355469 7.5-7.5 0-4.140625-3.359375-7.5-7.5-7.5h-86.5625c-4.140625 0-7.5 3.359375-7.5 7.5 0 4.144531 3.359375 7.5 7.5 7.5zm0 0"/><path d="m211.871094 151.273438h232.257812c4.140625 0 7.5-3.355469 7.5-7.5 0-4.144532-3.359375-7.5-7.5-7.5h-232.257812c-4.140625 0-7.5 3.355468-7.5 7.5 0 4.144531 3.359375 7.5 7.5 7.5zm0 0"/><path d="m211.871094 180.628906h138.460937c4.140625 0 7.5-3.359375 7.5-7.5 0-4.144531-3.359375-7.5-7.5-7.5h-138.460937c-4.140625 0-7.5 3.355469-7.5 7.5 0 4.140625 3.359375 7.5 7.5 7.5zm0 0"/><path d="m211.871094 231.3125h232.257812c4.140625 0 7.5-3.355469 7.5-7.5s-3.359375-7.5-7.5-7.5h-232.257812c-4.140625 0-7.5 3.355469-7.5 7.5s3.359375 7.5 7.5 7.5zm0 0"/><path d="m420.953125 245.667969h-209.082031c-4.140625 0-7.5 3.355469-7.5 7.5 0 4.140625 3.359375 7.5 7.5 7.5h209.082031c4.140625 0 7.5-3.359375 7.5-7.5 0-4.144531-3.359375-7.5-7.5-7.5zm0 0"/><path d="m75.875 111.425781c-11.953125 0-21.679688 9.726563-21.679688 21.6875 0 11.953125 9.726563 21.679688 21.679688 21.679688s21.675781-9.726563 21.675781-21.6875c0-11.953125-9.722656-21.679688-21.675781-21.679688zm0 28.363281c-3.683594 0-6.679688-2.996093-6.679688-6.683593 0-3.683594 2.996094-6.679688 6.679688-6.679688 3.679688 0 6.675781 2.996094 6.675781 6.6875 0 3.679688-2.996093 6.675781-6.675781 6.675781zm0 0"/><path d="m149.941406 125.609375h-35.332031c-4.140625 0-7.5 3.355469-7.5 7.5s3.359375 7.5 7.5 7.5h35.332031c4.140625 0 7.5-3.355469 7.5-7.5s-3.359375-7.5-7.5-7.5zm0 0"/><path d="m75.875 167.226562c-11.953125 0-21.679688 9.726563-21.679688 21.6875 0 11.953126 9.726563 21.675782 21.679688 21.675782s21.675781-9.722656 21.675781-21.683594c0-11.953125-9.722656-21.679688-21.675781-21.679688zm0 28.363282c-3.683594 0-6.679688-2.996094-6.679688-6.683594 0-3.683594 2.996094-6.679688 6.679688-6.679688 3.679688 0 6.675781 2.996094 6.675781 6.6875 0 3.679688-2.996093 6.675782-6.675781 6.675782zm0 0"/><path d="m149.941406 181.410156h-35.332031c-4.140625 0-7.5 3.355469-7.5 7.5 0 4.144532 3.359375 7.5 7.5 7.5h35.332031c4.140625 0 7.5-3.355468 7.5-7.5 0-4.144531-3.359375-7.5-7.5-7.5zm0 0"/><path d="m75.875 223.535156c-11.953125 0-21.679688 9.726563-21.679688 21.6875 0 11.953125 9.726563 21.679688 21.679688 21.679688s21.675781-9.726563 21.675781-21.6875c0-11.953125-9.722656-21.679688-21.675781-21.679688zm0 28.363282c-3.683594 0-6.679688-2.996094-6.679688-6.683594 0-3.683594 2.996094-6.679688 6.679688-6.679688 3.679688 0 6.675781 2.996094 6.675781 6.683594 0 3.683594-2.996093 6.679688-6.675781 6.679688zm0 0"/><path d="m149.941406 237.71875h-35.332031c-4.140625 0-7.5 3.355469-7.5 7.5 0 4.140625 3.359375 7.5 7.5 7.5h35.332031c4.140625 0 7.5-3.359375 7.5-7.5 0-4.144531-3.359375-7.5-7.5-7.5zm0 0"/></svg>