<svg version="1.1" id="Layer_1" xmlns="http://www.w3.org/2000/svg" x="0" y="0" width="595.3" height="550.6" viewBox="0 141.9 595.3 550.6" xml:space="preserve"><g fill="#C40054"><path d="M297.6 525.1c45.6 0 83.7 38.1 83.7 83.7v46.5c-1.9.9-2.8 1.9-12.1 5.6-14 3.7-36.3 8.4-70.7 8.4s-57.7-4.7-70.7-8.4c-10.2-2.8-10.2-3.7-12.1-5.6v-46.5c-1.8-45.5 36.4-83.7 81.9-83.7m190.7-71.6c45.6 0 83.7 38.1 83.7 83.7v46.5c-1.9.9-2.8 1.9-12.1 5.6-14 3.7-36.3 8.4-70.7 8.4s-57.7-4.7-70.7-8.4c-10.2-2.8-10.2-3.7-12.1-5.6v-46.5c-1.8-46.5 35.4-83.7 81.9-83.7m-381.3 0c45.6 0 83.7 38.1 83.7 83.7v46.5c-1.9.9-2.8 1.9-12.1 5.6-14 3.7-36.3 8.4-70.7 8.4s-58.6-4.7-71.6-9.3c-10.2-2.8-10.2-3.7-12.1-5.6v-46.5c0-45.6 37.2-82.8 82.8-82.8m190.6-71.6c32.6 0 59.5 27 59.5 59.5 0 33.5-27 59.5-59.5 59.5-33.5 0-59.5-27-59.5-59.5 0-33.5 27-59.5 59.5-59.5m190.7-72.6c33.5 0 59.5 27 59.5 59.5 0 33.5-26 59.5-59.5 59.5-32.6 0-59.5-27-59.5-59.5 0-22.3 12.1-40.9 29.8-52.1 1.9 0 3.7-.9 4.7-1.9l.9-.9h.9c7.4-2.7 14.8-4.6 23.2-4.6m-381.3 0c9.3 0 17.7 1.9 26 5.6 20.5 9.3 33.5 29.8 33.5 53.9 0 33.5-26 59.5-59.5 59.5-32.6 0-59.5-27-59.5-59.5s26.9-59.5 59.5-59.5m283.7-23.2c18.6 0 34.4 6.5 46.5 17.7-19.5 15.8-32.6 39.1-32.6 66 0 29.8 14.9 55.8 38.1 70.7-36.3 17.7-61.4 53.9-61.4 97.7v3.7c-10.2-13-23.3-23.3-38.1-30.7 23.3-14.9 38.1-40.9 38.1-70.7 0-39.1-26-71.6-61.4-80.9v-2.8c-.9-40 30.8-70.7 70.8-70.7m-187.9 0c40 0 71.6 31.6 71.6 71.6v3.7c-34.4 10.2-59.5 42.8-59.5 80 0 29.8 14.9 55.8 38.1 70.7-14.9 7.4-27.9 17.7-38.1 30.7v-4.7c0-42.8-25.1-80-61.4-97.7 23.3-14.9 38.1-40.9 38.1-70.7 0-27-13-52.1-33.5-67 11.2-11 27-16.6 44.7-16.6m187.9-120c26 0 47.4 21.4 47.4 48.4s-21.4 48.4-47.4 48.4-47.4-21.4-47.4-48.4 21.3-48.4 47.4-48.4m-187.9 0c26 0 47.4 21.4 47.4 48.4s-21.4 48.4-47.4 48.4-47.4-21.4-47.4-48.4c-1-27 20.4-48.4 47.4-48.4m0-24.2c-39.1 0-71.6 32.6-71.6 71.6 0 24.2 11.2 44.6 29.8 57.7-9.3 4.7-18.6 11.2-26 18.6-8.4-2.8-17.7-4.7-27.9-4.7-45.6 0-83.7 38.1-83.7 83.7 0 29.8 14.9 55.8 38.1 70.7C25.1 457.2 0 494.4 0 537.2v53.9c0 3.7 1.9 7.4 4.7 9.3 0 0 8.4 5.6 24.2 11.2 15.8 5.6 40.9 9.3 78.1 9.3s61.4-4.7 78.1-9.3c1.9-.9 3.7-.9 5.6-1.9v53c0 3.7 1.9 7.4 4.7 9.3 0 0 8.4 5.6 24.2 11.2 15.8 4.7 40.9 9.3 78.1 9.3s61.4-4.7 78.1-9.3C391.6 678.5 400 672 400 672c2.8-1.9 4.7-5.6 4.7-9.3v-53c1.9.9 3.7.9 5.6 1.9 15.8 4.7 40.9 9.3 78.1 9.3 36.3 0 61.4-4.7 78.1-9.3 15.8-4.7 24.2-11.2 24.2-11.2 2.8-1.9 4.7-5.6 4.7-9.3v-53.9c0-42.8-25.1-80-61.4-97.7 23.3-14.9 38.1-40.9 38.1-70.7 0-46.5-37.2-83.7-83.7-83.7-10.2 0-20.5 1.9-29.8 5.6-7.4-7.4-16.7-14.9-26-19.5 17.7-13 29.8-34.4 29.8-57.7 0-39.1-32.6-71.6-71.6-71.6S319 174.5 319 213.5c0 24.2 11.2 44.6 29.8 57.7-27 14-47.4 40-52.1 70.7-4.7-31.6-25.1-57.7-52.1-70.7 17.7-13 29.8-34.4 29.8-57.7-.9-39-32.6-71.6-71.6-71.6"/><path d="M297.6 525.1c45.6 0 83.7 38.1 83.7 83.7v46.5c-1.9.9-2.8 1.9-12.1 5.6-14 3.7-36.3 8.4-70.7 8.4s-57.7-4.7-70.7-8.4c-10.2-2.8-10.2-3.7-12.1-5.6v-46.5c-1.8-45.5 36.4-83.7 81.9-83.7zm190.7-71.6c45.6 0 83.7 38.1 83.7 83.7v46.5c-1.9.9-2.8 1.9-12.1 5.6-14 3.7-36.3 8.4-70.7 8.4s-57.7-4.7-70.7-8.4c-10.2-2.8-10.2-3.7-12.1-5.6v-46.5c-1.8-46.5 35.4-83.7 81.9-83.7zm-381.3 0c45.6 0 83.7 38.1 83.7 83.7v46.5c-1.9.9-2.8 1.9-12.1 5.6-14 3.7-36.3 8.4-70.7 8.4s-58.6-4.7-71.6-9.3c-10.2-2.8-10.2-3.7-12.1-5.6v-46.5c0-45.6 37.2-82.8 82.8-82.8zm190.6-71.6c32.6 0 59.5 27 59.5 59.5 0 33.5-27 59.5-59.5 59.5-33.5 0-59.5-27-59.5-59.5 0-33.5 27-59.5 59.5-59.5zm190.7-72.6c33.5 0 59.5 27 59.5 59.5 0 33.5-26 59.5-59.5 59.5-32.6 0-59.5-27-59.5-59.5 0-22.3 12.1-40.9 29.8-52.1 1.9 0 3.7-.9 4.7-1.9l.9-.9h.9c7.4-2.7 14.8-4.6 23.2-4.6zm-381.3 0c9.3 0 17.7 1.9 26 5.6 20.5 9.3 33.5 29.8 33.5 53.9 0 33.5-26 59.5-59.5 59.5-32.6 0-59.5-27-59.5-59.5s26.9-59.5 59.5-59.5zm283.7-23.2c18.6 0 34.4 6.5 46.5 17.7-19.5 15.8-32.6 39.1-32.6 66 0 29.8 14.9 55.8 38.1 70.7-36.3 17.7-61.4 53.9-61.4 97.7v3.7c-10.2-13-23.3-23.3-38.1-30.7 23.3-14.9 38.1-40.9 38.1-70.7 0-39.1-26-71.6-61.4-80.9v-2.8c-.9-40 30.8-70.7 70.8-70.7zm-187.9 0c40 0 71.6 31.6 71.6 71.6v3.7c-34.4 10.2-59.5 42.8-59.5 80 0 29.8 14.9 55.8 38.1 70.7-14.9 7.4-27.9 17.7-38.1 30.7v-4.7c0-42.8-25.1-80-61.4-97.7 23.3-14.9 38.1-40.9 38.1-70.7 0-27-13-52.1-33.5-67 11.2-11 27-16.6 44.7-16.6zm187.9-120c26 0 47.4 21.4 47.4 48.4s-21.4 48.4-47.4 48.4-47.4-21.4-47.4-48.4 21.3-48.4 47.4-48.4zm-187.9 0c26 0 47.4 21.4 47.4 48.4s-21.4 48.4-47.4 48.4-47.4-21.4-47.4-48.4c-1-27 20.4-48.4 47.4-48.4zm0-24.2c-39.1 0-71.6 32.6-71.6 71.6 0 24.2 11.2 44.6 29.8 57.7-9.3 4.7-18.6 11.2-26 18.6-8.4-2.8-17.7-4.7-27.9-4.7-45.6 0-83.7 38.1-83.7 83.7 0 29.8 14.9 55.8 38.1 70.7C25.1 457.2 0 494.4 0 537.2v53.9c0 3.7 1.9 7.4 4.7 9.3 0 0 8.4 5.6 24.2 11.2 15.8 5.6 40.9 9.3 78.1 9.3s61.4-4.7 78.1-9.3c1.9-.9 3.7-.9 5.6-1.9v53c0 3.7 1.9 7.4 4.7 9.3 0 0 8.4 5.6 24.2 11.2 15.8 4.7 40.9 9.3 78.1 9.3s61.4-4.7 78.1-9.3C391.6 678.5 400 672 400 672c2.8-1.9 4.7-5.6 4.7-9.3v-53c1.9.9 3.7.9 5.6 1.9 15.8 4.7 40.9 9.3 78.1 9.3 36.3 0 61.4-4.7 78.1-9.3 15.8-4.7 24.2-11.2 24.2-11.2 2.8-1.9 4.7-5.6 4.7-9.3v-53.9c0-42.8-25.1-80-61.4-97.7 23.3-14.9 38.1-40.9 38.1-70.7 0-46.5-37.2-83.7-83.7-83.7-10.2 0-20.5 1.9-29.8 5.6-7.4-7.4-16.7-14.9-26-19.5 17.7-13 29.8-34.4 29.8-57.7 0-39.1-32.6-71.6-71.6-71.6S319 174.5 319 213.5c0 24.2 11.2 44.6 29.8 57.7-27 14-47.4 40-52.1 70.7-4.7-31.6-25.1-57.7-52.1-70.7 17.7-13 29.8-34.4 29.8-57.7-.9-39-32.6-71.6-71.6-71.6z"/></g></svg>